<?xml version="1.0" standalone="no"?>
<!DOCTYPE svg PUBLIC "-//W3C//DTD SVG 20010904//EN"
 "http://www.w3.org/TR/2001/REC-SVG-20010904/DTD/svg10.dtd">
<svg version="1.0" xmlns="http://www.w3.org/2000/svg"
 width="512.000000pt" height="512.000000pt" viewBox="0 0 512.000000 512.000000"
 preserveAspectRatio="xMidYMid meet">
<metadata>
Created by potrace 1.11, written by Peter Selinger 2001-2013
</metadata>
<g transform="translate(0.000000,512.000000) scale(0.100000,-0.100000)"
fill="#000000" stroke="none">
<path d="M805 5056 c-126 -56 -156 -226 -57 -319 45 -43 90 -54 205 -51 56 1
248 5 427 8 366 7 686 14 995 21 116 3 350 7 520 11 171 3 375 7 455 9 80 2
318 6 530 10 413 7 426 9 463 61 43 59 26 142 -36 179 -25 15 -52 20 -122 21
-127 2 -752 14 -1006 19 -118 3 -338 7 -489 10 -151 3 -376 7 -500 10 -124 3
-340 7 -480 10 -868 16 -874 16 -905 1z"/>
<path d="M366 4546 c-53 -12 -120 -80 -131 -132 -22 -102 14 -183 100 -227 42
-21 69 -22 460 -12 72 2 281 6 465 10 184 4 398 8 475 10 77 2 291 6 475 10
184 3 412 8 505 10 185 4 752 16 960 20 72 2 135 3 142 4 7 1 28 15 47 31 45
40 56 95 28 148 -36 70 -37 70 -422 77 -190 3 -437 8 -550 10 -197 4 -425 9
-1040 20 -157 3 -370 8 -475 10 -104 2 -345 7 -534 10 -189 4 -371 8 -405 9
-34 1 -79 -2 -100 -8z"/>
<path d="M3467 4044 c-2 -2 -125 -6 -273 -9 -148 -3 -384 -7 -524 -10 -534
-11 -724 -15 -1010 -20 -162 -3 -385 -7 -495 -10 -110 -2 -351 -7 -535 -11
-184 -4 -369 -6 -410 -6 -106 1 -160 -13 -190 -51 -30 -38 -33 -108 -6 -149
31 -47 64 -55 234 -57 87 -2 227 -4 312 -6 85 -2 286 -6 445 -10 160 -3 382
-8 495 -10 113 -2 338 -7 500 -10 162 -3 378 -8 480 -10 102 -2 329 -7 505
-10 176 -4 367 -8 425 -9 115 -3 155 7 202 51 88 83 78 233 -20 298 -33 22
-125 48 -135 39z"/>
<path d="M244 3517 c-46 -15 -92 -55 -114 -97 -41 -81 -15 -194 58 -243 34
-23 106 -50 114 -42 2 2 147 6 323 10 176 3 406 8 510 10 105 3 314 7 465 10
151 3 376 7 499 10 122 3 327 7 455 10 127 3 357 7 511 10 154 4 359 8 456 9
96 2 184 8 195 14 66 36 92 120 55 179 -37 60 -44 61 -421 68 -190 3 -433 8
-540 10 -107 3 -319 7 -470 10 -557 10 -820 16 -1020 20 -113 3 -349 7 -525
11 -176 3 -365 6 -421 8 -55 1 -114 -2 -130 -7z"/>
<path d="M689 3006 c-63 -16 -103 -48 -129 -101 -40 -83 -20 -180 50 -239 54
-45 19 -43 580 -32 201 4 444 9 540 11 96 2 303 6 460 10 157 3 377 8 490 10
212 4 691 14 935 20 77 2 222 4 323 5 207 2 235 10 266 74 20 43 20 67 -1 111
-31 65 -56 72 -259 74 -205 3 -416 7 -834 16 -355 7 -622 12 -1035 20 -170 3
-402 8 -515 10 -113 2 -342 7 -509 10 -168 3 -307 8 -310 9 -3 2 -27 -2 -52
-8z"/>
<path d="M4467 2494 c-1 -1 -164 -5 -362 -8 -198 -4 -459 -9 -580 -11 -765
-15 -1257 -25 -1495 -30 -118 -2 -361 -7 -540 -10 -361 -7 -365 -8 -401 -75
-24 -44 -24 -77 1 -117 37 -61 52 -65 248 -69 97 -1 308 -5 467 -9 160 -3 391
-8 515 -10 124 -3 333 -7 465 -10 132 -2 359 -7 505 -10 146 -3 362 -8 480
-10 905 -19 833 -19 876 3 52 26 71 49 95 113 12 30 20 54 19 54 0 0 -6 20
-11 45 -12 54 -46 100 -95 130 -27 17 -53 23 -110 25 -41 1 -75 1 -77 -1z"/>
<path d="M4928 1985 c-1 -2 -154 -6 -338 -10 -184 -3 -420 -8 -525 -10 -104
-3 -327 -7 -495 -10 -168 -3 -406 -7 -530 -10 -387 -8 -725 -15 -1020 -21
-157 -3 -332 -6 -390 -7 -119 -3 -152 -16 -176 -74 -27 -63 -10 -123 43 -159
31 -20 1 -18 543 -29 168 -3 391 -8 495 -10 105 -3 305 -7 445 -10 140 -3 370
-7 510 -10 140 -3 350 -8 465 -10 563 -12 799 -17 899 -19 133 -2 188 17 232
83 59 90 39 204 -48 270 -18 13 -104 42 -110 36z"/>
<path d="M1590 1462 c-42 -5 -104 -54 -128 -102 -40 -77 -18 -185 48 -237 44
-35 85 -45 169 -44 102 3 327 8 731 16 162 3 378 8 480 10 102 2 316 7 475 10
160 3 373 7 475 10 217 4 747 15 1008 20 173 3 185 5 218 27 40 27 60 79 50
130 -7 36 -47 82 -81 92 -11 3 -148 8 -305 11 -157 3 -395 8 -530 10 -448 9
-762 15 -1025 20 -143 3 -357 7 -475 10 -251 5 -804 16 -970 18 -63 1 -126 1
-140 -1z"/>
<path d="M4146 943 c-1 -2 -292 -8 -876 -18 -229 -4 -755 -15 -990 -20 -91 -2
-340 -6 -555 -10 -214 -3 -406 -8 -425 -11 -99 -16 -140 -121 -79 -203 26 -36
53 -45 144 -47 39 0 225 -4 415 -8 190 -4 435 -9 545 -11 545 -12 681 -15 935
-20 151 -3 361 -7 465 -10 960 -22 989 -22 1035 -2 90 39 136 156 97 249 -17
41 -70 96 -107 110 -20 8 -596 9 -604 1z"/>
<path d="M835 425 c-147 -51 -173 -256 -43 -342 l42 -28 230 1 c127 1 386 4
576 8 190 4 422 9 515 11 593 12 801 16 965 20 347 8 765 16 973 20 206 3 208
3 242 29 50 38 65 110 35 167 -6 9 -25 26 -43 38 -30 18 -54 20 -312 25 -154
3 -397 8 -540 11 -431 9 -694 14 -1025 20 -173 3 -396 8 -495 10 -99 2 -331 7
-515 10 -184 4 -387 8 -451 10 -76 2 -129 -2 -154 -10z"/>
</g>
</svg>
