<?xml version="1.0" encoding="UTF-8" standalone="no"?>
<!-- Created with Inkscape (http://www.inkscape.org/) -->

<svg
   xmlns:dc="http://purl.org/dc/elements/1.1/"
   xmlns:cc="http://creativecommons.org/ns#"
   xmlns:rdf="http://www.w3.org/1999/02/22-rdf-syntax-ns#"
   xmlns:svg="http://www.w3.org/2000/svg"
   xmlns="http://www.w3.org/2000/svg"
   xmlns:sodipodi="http://sodipodi.sourceforge.net/DTD/sodipodi-0.dtd"
   xmlns:inkscape="http://www.inkscape.org/namespaces/inkscape"
   version="1.1"
   id="svg10"
   xml:space="preserve"
   width="41.628265"
   height="111.23849"
   viewBox="0 0 41.628266 111.2385"
   sodipodi:docname="mobile.svg"
   inkscape:version="0.92.3 (2405546, 2018-03-11)"><metadata
     id="metadata16"><rdf:RDF><cc:Work
         rdf:about=""><dc:format>image/svg+xml</dc:format><dc:type
           rdf:resource="http://purl.org/dc/dcmitype/StillImage" /><dc:title /></cc:Work></rdf:RDF></metadata><defs
     id="defs14"><clipPath
       clipPathUnits="userSpaceOnUse"
       id="clipPath112"><path
         d="M 0,500 H 500 V 0 H 0 Z"
         id="path110"
         inkscape:connector-curvature="0" /></clipPath><clipPath
       clipPathUnits="userSpaceOnUse"
       id="clipPath2388"><path
         d="M 0,500 H 500 V 0 H 0 Z"
         id="path2386"
         inkscape:connector-curvature="0" /></clipPath></defs><sodipodi:namedview
     pagecolor="#ffffff"
     bordercolor="#666666"
     borderopacity="1"
     objecttolerance="10"
     gridtolerance="10"
     guidetolerance="10"
     inkscape:pageopacity="0"
     inkscape:pageshadow="2"
     inkscape:window-width="2181"
     inkscape:window-height="1527"
     id="namedview12"
     showgrid="false"
     inkscape:zoom="1.5885"
     inkscape:cx="14.556415"
     inkscape:cy="23.795845"
     inkscape:window-x="1814"
     inkscape:window-y="251"
     inkscape:window-maximized="0"
     inkscape:current-layer="g108" /><g
     id="g18"
     inkscape:groupmode="layer"
     inkscape:label="131641-ORYF52-385"
     transform="matrix(1.3333333,0,0,-1.3333333,-318.77693,420.77597)"><g
       id="g26"
       transform="translate(414.2002,326.4727)" /><g
       id="g106"
       transform="translate(-13.5546,25.8571)"><g
         id="g108"
         clip-path="url(#clipPath112)"><g
           id="g342"
           transform="translate(32.0392,358.0981)" /><g
           id="g1122"
           transform="translate(281.4005,275.996)"><path
             d="m 0,0 -23.273,13.437 c -0.641,0.369 -1.224,0.375 -1.662,0.092 l -0.001,0.003 -2.888,-1.666 2.094,-6.464 v -54.928 c 0,-1.811 1.099,-3.912 2.457,-4.697 l 20.735,-11.971 1.087,-3.355 3.081,1.761 -0.005,0.016 c 0.51,0.306 0.833,0.993 0.833,1.971 V -4.696 C 2.458,-2.887 1.357,-0.784 0,0"
             style="fill:#00394c;fill-opacity:1;fill-rule:nonzero;stroke:none"
             id="path1124"
             inkscape:connector-curvature="0" /></g><g
           id="g1126"
           transform="translate(280.8263,269.5527)"><path
             d="m 0,0 c 0,1.811 -1.101,3.914 -2.458,4.697 l -23.274,13.436 c -1.356,0.784 -2.457,-0.048 -2.457,-1.858 v -61.104 c 0,-1.81 1.101,-3.913 2.457,-4.697 L -2.458,-62.961 C -1.101,-63.746 0,-62.914 0,-61.104 Z"
             style="fill:#005875;fill-opacity:1;fill-rule:nonzero;stroke:none"
             id="path1128"
             inkscape:connector-curvature="0" /></g><g
           id="g1130"
           transform="translate(278.9709,212.6835)"><path
             d="M 0,0 -24.479,14.132 V 69.78 L 0,55.646 Z"
             style="fill:#007ba3;fill-opacity:1;fill-rule:nonzero;stroke:none"
             id="path1132"
             inkscape:connector-curvature="0" /></g><g
           id="g1134"
           transform="translate(278.9709,213.8808)"><path
             d="m 0,0 -23.406,13.514 v 54.429 l -1.073,0.64 V 14.134 12.935 l 1.073,-0.64 v 0.021 L 0,-1.197 Z"
             style="fill:#00394c;fill-opacity:1;fill-rule:nonzero;stroke:none"
             id="path1136"
             inkscape:connector-curvature="0" /></g><g
           id="g1138"
           transform="translate(270.6632,275.6728)"><path
             d="m 0,0 c 0,-0.433 -0.263,-0.632 -0.587,-0.444 l -6.689,3.863 c -0.325,0.187 -0.588,0.689 -0.588,1.122 0,0.431 0.263,0.63 0.588,0.443 L -0.587,1.121 C -0.263,0.934 0,0.432 0,0"
             style="fill:#00394c;fill-opacity:1;fill-rule:nonzero;stroke:none"
             id="path1140"
             inkscape:connector-curvature="0" /></g><g
           id="g1142"
           transform="translate(268.175,215.8725)"><path
             d="m 0,0 c 0,-1.061 -0.646,-1.55 -1.443,-1.089 -0.798,0.459 -1.443,1.693 -1.443,2.756 0,1.062 0.645,1.551 1.443,1.09 C -0.646,2.298 0,1.063 0,0"
             style="fill:#00394c;fill-opacity:1;fill-rule:nonzero;stroke:none"
             id="path1144"
             inkscape:connector-curvature="0" /></g><g
           id="g1146"
           transform="translate(282.0851,258.9384)"><path
             d="M 0,0 0.008,0.004 V -0.004 L 1.26,0.718 V 5.255 C 1.26,5.489 1.187,5.659 1.069,5.742 1.067,5.744 1.063,5.744 1.062,5.747 1.062,5.748 1.059,5.748 1.057,5.75 1.055,5.751 1.051,5.752 1.049,5.754 1.049,5.755 1.045,5.755 1.043,5.757 1.041,5.758 1.037,5.76 1.035,5.761 1.033,5.762 1.031,5.762 1.029,5.764 1.027,5.766 1.024,5.767 1.022,5.768 1.021,5.77 1.019,5.77 1.017,5.771 1.015,5.773 1.013,5.774 1.009,5.776 1.007,5.777 1.005,5.777 1.003,5.779 1,5.78 0.999,5.781 0.995,5.783 0.993,5.784 0.991,5.785 0.989,5.786 0.987,5.789 0.983,5.789 0.982,5.79 0.981,5.792 0.979,5.792 0.976,5.794 0.975,5.794 0.971,5.796 0.97,5.798 0.967,5.799 0.965,5.799 0.963,5.801 0.961,5.802 0.958,5.803 0.956,5.805 0.953,5.806 0.951,5.807 0.949,5.808 0.947,5.81 0.944,5.811 0.944,5.812 0.94,5.813 0.938,5.815 0.937,5.816 0.934,5.818 0.933,5.818 0.929,5.819 0.927,5.82 0.925,5.82 0.923,5.823 0.921,5.825 0.919,5.825 0.915,5.827 0.914,5.828 0.911,5.829 0.908,5.831 0.907,5.833 0.903,5.833 0.902,5.834 0.901,5.835 0.898,5.836 0.896,5.838 0.895,5.839 0.891,5.84 0.89,5.841 0.889,5.842 0.885,5.844 0.883,5.845 0.881,5.847 0.878,5.847 0.877,5.848 0.875,5.85 0.871,5.852 0.869,5.852 0.867,5.854 0.864,5.854 0.862,5.856 0.86,5.857 0.858,5.859 0.856,5.86 0.854,5.861 0.853,5.861 0.849,5.863 L 0.843,5.867 C 0.84,5.869 0.837,5.87 0.835,5.871 0.834,5.873 0.831,5.873 0.829,5.875 0.827,5.876 0.825,5.876 0.823,5.878 0.821,5.879 0.818,5.881 0.815,5.882 0.814,5.883 0.811,5.884 0.81,5.885 0.807,5.887 0.805,5.888 0.803,5.889 0.801,5.891 0.798,5.891 0.795,5.893 0.793,5.894 0.791,5.895 0.789,5.896 0.787,5.898 0.784,5.899 0.782,5.901 0.78,5.902 0.778,5.902 0.776,5.903 0.774,5.905 0.772,5.905 0.771,5.907 0.767,5.909 0.765,5.91 0.763,5.911 0.761,5.913 0.759,5.913 0.755,5.916 0.754,5.917 0.751,5.917 0.749,5.918 0.747,5.92 0.745,5.921 0.743,5.922 0.741,5.924 0.738,5.924 0.736,5.925 0.734,5.927 0.73,5.928 0.729,5.93 0.727,5.931 0.725,5.931 0.723,5.933 0.721,5.935 0.718,5.936 0.717,5.937 0.713,5.939 0.711,5.939 0.709,5.941 0.707,5.941 0.704,5.943 0.702,5.944 0.7,5.946 0.698,5.946 0.696,5.947 0.694,5.949 0.692,5.95 0.688,5.952 0.687,5.953 0.685,5.953 0.683,5.955 0.68,5.957 0.677,5.958 0.675,5.959 0.674,5.961 0.671,5.961 0.669,5.962 0.667,5.964 0.665,5.965 0.663,5.966 0.661,5.968 0.658,5.968 0.656,5.97 0.654,5.971 0.65,5.972 0.649,5.973 0.646,5.975 0.645,5.976 0.643,5.978 0.641,5.979 0.638,5.979 0.637,5.981 0.635,5.982 0.631,5.983 0.629,5.983 0.627,5.986 0.624,5.987 0.623,5.988 0.62,5.99 0.619,5.99 0.616,5.991 0.614,5.994 0.612,5.994 0.608,5.996 0.607,5.997 0.604,5.998 0.603,6 0.6,6.001 0.599,6.001 0.595,6.002 0.594,6.004 0.591,6.005 0.589,6.006 0.587,6.008 0.585,6.008 0.583,6.01 0.581,6.011 0.578,6.012 0.576,6.014 0.574,6.015 0.572,6.016 0.569,6.018 0.456,6.103 0.3,6.106 0.127,6.007 -0.22,5.808 -0.5,5.272 -0.5,4.812 V 0.275 l 0.008,0.004 V 0.271 Z"
             style="fill:#005875;fill-opacity:1;fill-rule:nonzero;stroke:none"
             id="path1148"
             inkscape:connector-curvature="0" /></g><g
           id="g1150"
           transform="translate(282.838,259.2973)"><path
             d="m 0,0 v 0.007 l -1.253,-0.722 v -4.453 c 0,-0.234 0.073,-0.403 0.191,-0.488 0.002,-0.001 0.004,-0.002 0.005,-0.003 0.002,-0.002 0.005,-0.002 0.006,-0.004 0.004,-10e-4 0.005,-0.002 0.008,-0.004 0.002,0 0.005,-0.001 0.006,-0.003 0.004,-0.001 0.006,-0.002 0.008,-0.005 0.002,0 0.004,-0.001 0.006,-0.003 0.002,-0.001 0.005,-0.002 0.007,-0.003 0.002,-0.002 0.003,-0.002 0.007,-0.004 10e-4,-0.001 0.004,-0.002 0.006,-0.003 0.002,-0.002 0.006,-0.002 0.007,-0.004 0.001,-10e-4 0.005,-0.002 0.007,-0.004 0.002,-0.001 0.006,-0.002 0.007,-0.003 0.001,-0.002 0.004,-0.003 0.005,-0.005 0.002,-0.001 0.005,-0.001 0.006,-0.003 0.004,-0.001 0.006,-0.002 0.008,-0.004 0.002,0 0.005,-10e-4 0.006,-0.003 0.004,-0.002 0.006,-0.003 0.008,-0.004 0.002,-0.001 0.004,-0.001 0.008,-0.004 0.001,0 0.004,-0.002 0.005,-0.003 0.002,-0.002 0.003,-0.003 0.007,-0.004 0.001,-0.001 0.004,-0.002 0.007,-0.004 0.001,-0.001 0.003,-0.001 0.006,-0.003 0.001,-0.001 0.005,-0.003 0.006,-0.004 0.003,-10e-4 0.007,-0.002 0.008,-0.003 0.003,-0.002 0.005,-0.003 0.006,-0.004 0.001,-0.002 0.004,-0.002 0.005,-0.004 0.004,0 0.005,-0.002 0.008,-0.003 0.004,-0.002 0.005,-0.003 0.008,-0.005 0.002,-10e-4 0.004,-10e-4 0.006,-0.003 0.002,-0.001 0.004,-0.003 0.008,-0.003 0.001,-0.002 0.004,-0.003 0.006,-0.004 0.001,-0.002 0.004,-0.002 0.006,-0.004 0.001,-0.002 0.004,-0.002 0.006,-0.003 0.002,-0.002 0.006,-0.003 0.007,-0.004 0.001,-0.002 0.005,-0.002 0.007,-0.004 0.002,-0.001 0.006,-0.001 0.007,-0.004 0.001,-0.002 0.005,-0.002 0.006,-0.003 0.002,-10e-4 0.004,-0.003 0.005,-0.004 0.004,-0.002 0.005,-0.002 0.008,-0.003 0.002,-0.002 0.005,-0.003 0.006,-0.004 0.004,-0.002 0.006,-0.002 0.008,-0.003 0.002,-0.002 0.004,-0.003 0.008,-0.005 0.001,-0.002 0.004,-0.002 0.006,-0.003 0.002,-0.001 0.003,-0.003 0.006,-0.004 0.001,-0.002 0.004,-0.002 0.006,-0.003 0.002,-10e-4 0.004,-0.002 0.007,-0.004 0.001,-0.002 0.005,-0.003 0.007,-0.003 0.002,-0.003 0.006,-0.003 0.007,-0.005 0.001,-0.001 0.005,-0.001 0.006,-0.002 0.002,-0.002 0.004,-0.004 0.006,-0.005 0.003,-10e-4 0.005,-0.002 0.007,-0.003 0.002,-0.002 0.004,-0.003 0.006,-0.004 0.004,-0.002 0.006,-0.002 0.008,-0.004 0.002,-0.002 0.004,-0.002 0.008,-0.004 0.001,-0.001 0.004,-0.002 0.006,-0.002 0.002,-0.003 0.003,-0.003 0.007,-0.005 10e-4,-0.001 0.003,-0.002 0.005,-0.003 0.001,-0.003 0.006,-0.003 0.007,-0.004 0.001,-0.002 0.005,-0.002 0.007,-0.005 0.002,-10e-4 0.005,-10e-4 0.006,-0.002 0.002,-0.002 0.006,-0.003 0.007,-0.003 0.002,-0.002 0.005,-0.003 0.006,-0.004 0.002,-0.002 0.004,-0.003 0.007,-0.004 0.002,-0.002 0.004,-0.002 0.006,-0.004 l 0.008,-0.004 c 0.003,-0.002 0.004,-0.002 0.008,-0.003 0.001,-0.002 0.004,-0.003 0.006,-0.004 0,-0.002 0.003,-0.002 0.007,-0.003 0.001,-0.003 0.004,-0.003 0.005,-0.005 0.002,-0.001 0.006,-0.001 0.007,-0.003 0.001,-0.002 0.005,-0.003 0.006,-0.004 0.003,-0.002 0.006,-0.002 0.007,-0.003 0.002,-0.001 0.006,-0.003 0.008,-0.004 0.001,-0.002 0.004,-0.002 0.005,-0.003 0.004,-0.002 0.005,-0.003 0.008,-0.005 0.113,-0.086 0.269,-0.089 0.442,0.011 0.346,0.201 0.627,0.735 0.627,1.196 v 4.452 L 0.499,-0.276 v 0.008 z"
             style="fill:#005875;fill-opacity:1;fill-rule:nonzero;stroke:none"
             id="path1152"
             inkscape:connector-curvature="0" /></g><g
           id="g1154"
           transform="translate(282.838,259.3041)"><path
             d="m 0,0 0.507,-0.279 -1.252,-0.722 -0.508,0.279 z"
             style="fill:#00394c;fill-opacity:1;fill-rule:nonzero;stroke:none"
             id="path1156"
             inkscape:connector-curvature="0" /></g><g
           id="g1158"
           transform="translate(283.3341,259.6567)"><path
             d="M 0,0 V 4.537 C 0,4.998 -0.279,5.208 -0.626,5.009 -0.971,4.81 -1.252,4.275 -1.252,3.814 v -4.536 z"
             style="fill:#007ba3;fill-opacity:1;fill-rule:nonzero;stroke:none"
             id="path1160"
             inkscape:connector-curvature="0" /></g><g
           id="g1162"
           transform="translate(282.0822,258.3031)"><path
             d="m 0,0 v -4.453 c 0,-0.46 0.281,-0.673 0.626,-0.473 0.347,0.201 0.626,0.735 0.626,1.197 v 4.451 z"
             style="fill:#007ba3;fill-opacity:1;fill-rule:nonzero;stroke:none"
             id="path1164"
             inkscape:connector-curvature="0" /></g><g
           id="g1166"
           transform="translate(263.9933,254.0087)"><path
             d="M 0,0 8.36,-11.262 0,-12.872 Z"
             style="fill:#fbb03b;fill-opacity:1;fill-rule:nonzero;stroke:none"
             id="path1168"
             inkscape:connector-curvature="0" /></g></g></g></g></svg>